<svg xmlns="http://www.w3.org/2000/svg" width="506.872" height="110.288" viewBox="0 0 506.872 110.288">
  <g id="Group_3" data-name="Group 3" transform="translate(-64 -631.632)">
    <g id="Group_1" data-name="Group 1" transform="translate(-760.544 100.674)">
      <rect id="Rectangle_4" data-name="Rectangle 4" width="31.194" height="31.194" transform="translate(868.659 553.016) rotate(45)" fill="#90ba4c"/>
      <path id="Rectangle_11" data-name="Rectangle 11" d="M0,0H31.194V31.194H4a4,4,0,0,1-4-4Z" transform="translate(846.602 575.073) rotate(45)" fill="#719d2c"/>
      <rect id="Rectangle_7" data-name="Rectangle 7" width="31.194" height="31.194" transform="translate(912.774 553.016) rotate(45)" fill="#90ba4c"/>
      <rect id="Rectangle_9" data-name="Rectangle 9" width="31.194" height="31.194" transform="translate(890.716 575.073) rotate(45)" fill="#719d2c"/>
      <path id="Rectangle_13" data-name="Rectangle 13" d="M0,0H31.194V27.194a4,4,0,0,1-4,4H0Z" transform="translate(912.774 597.131) rotate(45)" fill="#507d0c"/>
      <path id="Rectangle_14" data-name="Rectangle 14" d="M0,0H31.194V27.194a4,4,0,0,1-4,4H0Z" transform="translate(868.659 597.131) rotate(45)" fill="#507d0c"/>
      <path id="Rectangle_15" data-name="Rectangle 15" d="M0,0H31.194V27.194a4,4,0,0,1-4,4H0Z" transform="translate(956.889 597.131) rotate(45)" fill="#507d0c"/>
      <rect id="Rectangle_10" data-name="Rectangle 10" width="31.194" height="31.194" transform="translate(934.831 575.073) rotate(45)" fill="#719d2c"/>
      <path id="Rectangle_12" data-name="Rectangle 12" d="M0,0H27.194a4,4,0,0,1,4,4V31.194H0Z" transform="translate(978.946 575.073) rotate(45)" fill="#719d2c"/>
      <rect id="Rectangle_8" data-name="Rectangle 8" width="31.194" height="31.194" transform="translate(956.889 553.016) rotate(45)" fill="#90ba4c"/>
      <path id="Rectangle_5" data-name="Rectangle 5" d="M3,0H31.194V31.194H0V3A3,3,0,0,1,3,0Z" transform="translate(890.716 530.958) rotate(45)" fill="#c4d3ac"/>
      <path id="Rectangle_6" data-name="Rectangle 6" d="M3,0H31.194V31.194H0V3A3,3,0,0,1,3,0Z" transform="translate(934.831 530.958) rotate(45)" fill="#c4d3ac"/>
    </g>
    <path id="Path_1" data-name="Path 1" d="M22.23-14.85a4.532,4.532,0,0,1-.315,3.42A20.642,20.642,0,0,1,19.4-7.245a31.232,31.232,0,0,1-4.005,4.32A50.246,50.246,0,0,1,10.62.9a52.622,52.622,0,0,1-.855,9.81,25.562,25.562,0,0,1-2.7,7.785,14.211,14.211,0,0,1-4.725,5.13A12.575,12.575,0,0,1-4.59,25.47,9.444,9.444,0,0,1-9.63,23.9q-2.52-1.575-3.78-5.625a10.744,10.744,0,0,1-.18-6.435,18.42,18.42,0,0,1,2.835-5.76A29.19,29.19,0,0,1-6.345,1.26,59.018,59.018,0,0,1-1.71-2.43,43.492,43.492,0,0,0-2.025-7.2q-.315-2.79-.585-5.94t-.45-6.435a55.145,55.145,0,0,1,0-6.3,25.716,25.716,0,0,1,.9-5.535A9.672,9.672,0,0,1,0-35.46a8.1,8.1,0,0,1,1.17-.81,5.3,5.3,0,0,1,1.35-.54,6.252,6.252,0,0,1,2.115,0,8.227,8.227,0,0,1,2.115.63,10.524,10.524,0,0,1,2.16,1.125,2.943,2.943,0,0,1,1.26,1.665,8.058,8.058,0,0,1,.4,1.575q.135.855.315,1.845.09,2.61,0,5.4t-.225,5.625q-.135,2.835-.315,5.535t-.18,5.13a10.59,10.59,0,0,0,3.51-2.34,34.379,34.379,0,0,0,2.7-3.015q1.17-1.485,2.025-2.61T19.8-17.37a2.03,2.03,0,0,1,1.44.765A4.1,4.1,0,0,1,22.23-14.85ZM-.09-48.51a15.183,15.183,0,0,1-.855-4.41,9.141,9.141,0,0,1,.5-3.42,5.175,5.175,0,0,1,1.53-2.25,3.456,3.456,0,0,1,2.25-.81,12.883,12.883,0,0,1,2.7.36,26.392,26.392,0,0,1,3.24.945,13.975,13.975,0,0,1,2.925,1.44A4.422,4.422,0,0,1,13.95-54.72q.36,1.08-.9,3.285A26.413,26.413,0,0,0,10.8-45.9q-.81,2.61-3.06,2.61a10.484,10.484,0,0,1-4.41-.99A7.184,7.184,0,0,1-.09-48.51ZM0,5.85A21.875,21.875,0,0,0-2.745,8.28a17.508,17.508,0,0,0-2.34,2.97A10.729,10.729,0,0,0-6.39,14.175a2.679,2.679,0,0,0,.27,2.295,1.821,1.821,0,0,0,1.89,1.35,3.866,3.866,0,0,0,1.755-1.26,8.243,8.243,0,0,0,1.44-2.61A17.573,17.573,0,0,0-.18,10.26,26.3,26.3,0,0,0,0,5.85ZM65.16-14.58A8.392,8.392,0,0,1,64.4-9.765,15.834,15.834,0,0,1,61.11-5.13a21.726,21.726,0,0,1-4.95,3.69A17.309,17.309,0,0,1,50.4.54a16.419,16.419,0,0,1-2.43,0Q42.93.27,40.86-3.69q-.18-.45-.4-.945A10.6,10.6,0,0,1,40.05-5.67,21.442,21.442,0,0,1,34.515-.81,11.891,11.891,0,0,1,28.35.99a9.4,9.4,0,0,1-6.435-2.25A13.516,13.516,0,0,1,18.09-7.2a37.611,37.611,0,0,1-1.035-4.41,47.478,47.478,0,0,1-.675-5.8,55.167,55.167,0,0,1,0-6.3,29.261,29.261,0,0,1,.9-5.9A13.009,13.009,0,0,1,19.4-34.155a5.875,5.875,0,0,1,3.645-2.3,10.377,10.377,0,0,1,5.22.63,2.877,2.877,0,0,1,1.35.675,2.5,2.5,0,0,1,.72,1.035,3.16,3.16,0,0,1,.45,1.71,15.862,15.862,0,0,1,.09,4.455q-.27,2.2-.72,4.815t-.81,5.94a46.483,46.483,0,0,0-.09,7.74,2.018,2.018,0,0,0,2.16,1.53,4.3,4.3,0,0,0,3.915-2.565A20.072,20.072,0,0,0,37.35-16.47q.81-4.41,1.215-8.01t.945-6.21A12.933,12.933,0,0,1,41-34.83a3.849,3.849,0,0,1,2.925-1.8,9.768,9.768,0,0,1,2.07.045q1.17.135,2.43.405a9.4,9.4,0,0,1,2.52,1.08,3.793,3.793,0,0,1,1.62,1.89,20,20,0,0,1,.4,5.94,61.5,61.5,0,0,1-.81,6.525q-.585,3.285-1.17,6.3A23.222,23.222,0,0,0,50.49-9.18a1.78,1.78,0,0,0,.855,1.125,2.832,2.832,0,0,0,1.485.405,5.934,5.934,0,0,0,3.555-1.53A17.155,17.155,0,0,0,60.3-14.22a16.743,16.743,0,0,0,1.035-1.8q.495-.99,1.035-.99a3.755,3.755,0,0,1,1.71.72A2.515,2.515,0,0,1,65.16-14.58ZM60.03-18a55.722,55.722,0,0,1-.045-7.425,41.733,41.733,0,0,1,.9-6.705,18.561,18.561,0,0,1,1.755-4.9,3.326,3.326,0,0,1,2.61-2.025,20.126,20.126,0,0,1,2.205.135,15.061,15.061,0,0,1,2.475.495A10.642,10.642,0,0,1,72.675-37.4,2.815,2.815,0,0,1,74.16-35.73a1.944,1.944,0,0,1,0,1.17q-.18.63-.45,1.44a17.889,17.889,0,0,0-.5,1.845,11.3,11.3,0,0,0-.225,2.385,18.982,18.982,0,0,1,5.76-5.895,11.952,11.952,0,0,1,6.39-2.205,9.1,9.1,0,0,1,5.67,1.71,6.822,6.822,0,0,1,2.7,4.5,28.252,28.252,0,0,1,5.265-4.5,9.94,9.94,0,0,1,5.445-1.71,9.032,9.032,0,0,1,4.68,1.17,7.5,7.5,0,0,1,2.97,3.15,10.351,10.351,0,0,1,1.26,5.715,39.873,39.873,0,0,1-.9,6.345q-.72,3.24-1.3,6.345a10.941,10.941,0,0,0,.225,5.535,2.007,2.007,0,0,0,.765,1.035,2.8,2.8,0,0,0,1.485.315q1.89,0,4.05-2.61a36.683,36.683,0,0,0,4.32-6.93,1.748,1.748,0,0,1,1.35-1.125,2.984,2.984,0,0,1,1.89.405,2.491,2.491,0,0,1,1.215,1.125,2.732,2.732,0,0,1,.225,1.485,9.944,9.944,0,0,1-1.26,4.77,23.175,23.175,0,0,1-3.645,5.22,22.944,22.944,0,0,1-5.13,4.23A10.968,10.968,0,0,1,110.7.9a14.933,14.933,0,0,1-6.93-1.53,8.005,8.005,0,0,1-4.05-4.68,11.932,11.932,0,0,1-.45-5.355q.36-3.015.99-5.94t.99-5.31a5.033,5.033,0,0,0-.36-3.465,1.224,1.224,0,0,0-1.26-.315q-.63.225-1.26.495a6.4,6.4,0,0,0-3.645,3.645A24.7,24.7,0,0,0,92.97-15.39a45.245,45.245,0,0,0-.54,7.065q0,3.645.18,6.345.18,1.71-.675,2.3A4.769,4.769,0,0,1,89.28.9,15.83,15.83,0,0,1,84.33.135a6.111,6.111,0,0,1-3.6-3.285,22.208,22.208,0,0,1-.315-6.48q.315-3.33.81-6.345t.855-5.49a9.152,9.152,0,0,0-.09-3.915,5.255,5.255,0,0,0-1.35-.225,5.11,5.11,0,0,0-1.53.135,6.039,6.039,0,0,0-3.33,3.285,21.712,21.712,0,0,0-1.71,5.58,44.338,44.338,0,0,0-.63,6.39q-.09,3.285-.09,5.625-.09,1.26-.135,2.745T72.18,0a.806.806,0,0,1-.45.225,3.554,3.554,0,0,0-.54.135q-.36,0-1.215.045a8.072,8.072,0,0,1-1.98-.18,7.586,7.586,0,0,1-2.295-.9A8.191,8.191,0,0,1,63.45-2.7a10.756,10.756,0,0,1-1.665-3.375,33.283,33.283,0,0,1-.945-4.05,40.881,40.881,0,0,1-.495-4.14Q60.21-16.29,60.03-18Zm97.65-.09a.966.966,0,0,1,.9-.45,2.845,2.845,0,0,1,2.295.9,3.225,3.225,0,0,1,.765,2.16,11.659,11.659,0,0,1-1.62,5.76,18.888,18.888,0,0,1-4.5,5.265,23.917,23.917,0,0,1-6.75,3.87A23.167,23.167,0,0,1,140.4.9a22.337,22.337,0,0,1-6.21-.855,19.279,19.279,0,0,1-5.4-2.475,19.448,19.448,0,0,1-4.275-3.87,16.441,16.441,0,0,1-2.835-5.13,27.1,27.1,0,0,1-1.665-8.64,21.1,21.1,0,0,1,1.215-8.1,13.026,13.026,0,0,1,2.115-3.6,14.174,14.174,0,0,1,3.465-3.015,17.977,17.977,0,0,1,4.86-2.07,24.229,24.229,0,0,1,6.39-.765,14.384,14.384,0,0,1,8.235,2.115,11.248,11.248,0,0,1,4.365,5.625,9.4,9.4,0,0,1,.135,6.075,11.342,11.342,0,0,1-3.33,4.95,17.868,17.868,0,0,1-5.9,3.375,22.487,22.487,0,0,1-7.65,1.26,11.254,11.254,0,0,0,2.655,4.995Q138.42-7.29,142.29-7.02a14.736,14.736,0,0,0,9.135-3.33A25.126,25.126,0,0,0,157.68-18.09Zm-25.11-1.53a7.352,7.352,0,0,0,3.915-.5,8.075,8.075,0,0,0,2.925-2.115,7.531,7.531,0,0,0,1.62-3.105,5.861,5.861,0,0,0-.09-3.375,5.94,5.94,0,0,0-1.125-1.8,2.524,2.524,0,0,0-1.935-.72,3.584,3.584,0,0,0-2.34.9,6.871,6.871,0,0,0-1.8,2.475,14.885,14.885,0,0,0-1.08,3.69A16.305,16.305,0,0,0,132.57-19.62Zm49.41,5.04a6.64,6.64,0,0,1-.765,4.9A19.033,19.033,0,0,1,177.39-4.59a24.582,24.582,0,0,1-5.445,3.96A12.118,12.118,0,0,1,166.23.99q-4.05,0-5.94-1.62a11.323,11.323,0,0,1-3.06-5.13,41.412,41.412,0,0,1-1.08-4.545,58.3,58.3,0,0,1-.81-6.12,61.923,61.923,0,0,1-.18-6.7,28.463,28.463,0,0,1,.81-6.255,14.514,14.514,0,0,1,2.07-4.77,5.256,5.256,0,0,1,3.6-2.3,11.031,11.031,0,0,1,4.05.18,5.1,5.1,0,0,1,2.61,1.35,5.018,5.018,0,0,1,1.08,1.71,18.027,18.027,0,0,1,.405,3.1,15.806,15.806,0,0,1-.18,2.88q-.225,1.485-.54,3.2t-.585,4.14q-.27,2.07-.495,4.815a32.088,32.088,0,0,0,.045,5.625,1.89,1.89,0,0,0,1.98,1.44q1.89,0,4.005-2.385a67.456,67.456,0,0,0,4.365-5.535q.18-.27.45-.63t.45-.36a3.086,3.086,0,0,1,1.62.765A3.253,3.253,0,0,1,181.98-14.58ZM166.77-41.85a8.913,8.913,0,0,1-4.185-1.215,7.823,7.823,0,0,1-3.1-4.185,15.665,15.665,0,0,1-.72-4.41,8.819,8.819,0,0,1,.63-3.465,5.625,5.625,0,0,1,1.665-2.3,3.762,3.762,0,0,1,2.385-.81,12.883,12.883,0,0,1,2.7.36,22.255,22.255,0,0,1,3.24.99,14.183,14.183,0,0,1,2.925,1.53,4.062,4.062,0,0,1,1.665,1.98,3.106,3.106,0,0,1-.9,2.61,8.4,8.4,0,0,0-1.44,2.61q-.54,1.53-1.035,2.925a16.638,16.638,0,0,1-1.035,2.385,1.618,1.618,0,0,1-1.44.99Zm54.09,27a7.879,7.879,0,0,1-1.08,4.95,21.537,21.537,0,0,1-3.825,5.085,21.987,21.987,0,0,1-5.4,3.96A12.53,12.53,0,0,1,204.75.72,12.444,12.444,0,0,1,198.09-.9a10.626,10.626,0,0,1-4.05-4.77,9.4,9.4,0,0,1-.315-4.95q.5-2.7,1.26-5.355t1.26-5.13a6.94,6.94,0,0,0-.315-4.275,2.3,2.3,0,0,0-1.44-1.575,9.642,9.642,0,0,0-2.43-.54q-1.35-.135-2.745-.135a7.21,7.21,0,0,1-2.205-.27,45,45,0,0,1-1.035,6.12,43.649,43.649,0,0,1-1.89,6.075,26.167,26.167,0,0,1-2.475,4.86,6.459,6.459,0,0,1-2.7,2.565,1.763,1.763,0,0,1-1.35.18q-1.17,0-1.98-2.34a1.254,1.254,0,0,1,.135-.81,7.612,7.612,0,0,1,.495-.99q1.08-2.16,1.935-4.275a43.14,43.14,0,0,0,1.485-4.32,23.02,23.02,0,0,0,.81-4.635,30.729,30.729,0,0,0-.09-5.22,12.868,12.868,0,0,1-2.07-1.935,8.284,8.284,0,0,1-1.62-2.475,16.386,16.386,0,0,1-.63-4.86,11.738,11.738,0,0,1,.675-3.69,5.427,5.427,0,0,1,1.665-2.385,4.194,4.194,0,0,1,2.34-.945,14.3,14.3,0,0,1,2.475.27,29.2,29.2,0,0,1,3.015.72,13,13,0,0,1,3.195,1.305,4.44,4.44,0,0,1,1.935,1.845,1.984,1.984,0,0,1-.225,1.44q-.405.81-.99,1.755T189.09-37.62a6.022,6.022,0,0,0-.63,2.25,7.945,7.945,0,0,0,3.555,1.4,23.084,23.084,0,0,0,3.915.4,6.333,6.333,0,0,0,2.7-.585,5.209,5.209,0,0,1,2.07-.585,6.053,6.053,0,0,1,2.025.405,10.384,10.384,0,0,1,2.16,1.08,8.65,8.65,0,0,1,1.755,1.485,5.051,5.051,0,0,1,.99,1.53,12.092,12.092,0,0,1,.45,5.4q-.36,3.06-.99,6.075t-1.125,5.67A7.963,7.963,0,0,0,206.01-9q.18,1.44,1.98,1.44a6.721,6.721,0,0,0,3.78-1.755q2.25-1.755,5.4-6.8a5.263,5.263,0,0,0,.45-.54q.27-.36.45-.36a3.647,3.647,0,0,1,1.62.63A3.018,3.018,0,0,1,220.86-14.85Zm43.38-.54a6.879,6.879,0,0,1-.765,4.725,22.45,22.45,0,0,1-3.6,5.31,23.485,23.485,0,0,1-5.22,4.365A10.639,10.639,0,0,1,249.12.81a12.075,12.075,0,0,1-5.94-1.35,8.956,8.956,0,0,1-3.78-5.04,11.187,11.187,0,0,1-4.365,5.04,12.205,12.205,0,0,1-5.355,1.8,13.977,13.977,0,0,1-7.965-2.385A13.973,13.973,0,0,1,216.45-8.64a16.825,16.825,0,0,1-.9-6.435,23.76,23.76,0,0,1,1.26-6.435,25.015,25.015,0,0,1,2.97-5.94,26.927,26.927,0,0,1,4.23-4.9A19.618,19.618,0,0,1,229-35.685,12.762,12.762,0,0,1,234.36-36.9a8.325,8.325,0,0,1,1.935.225,14.031,14.031,0,0,1,1.665.495l.36-2.43a1.3,1.3,0,0,1,.81-.9,3.2,3.2,0,0,1,1.44-.36,11.4,11.4,0,0,1,2.655.36,16.33,16.33,0,0,1,2.88.99,12.89,12.89,0,0,1,2.565,1.53,5.816,5.816,0,0,1,1.71,1.98,44.555,44.555,0,0,1,0,5.94q-.18,4.77-.9,14.31a20.406,20.406,0,0,0-.18,2.7v2.79a2,2,0,0,0,2.25,1.53,5.234,5.234,0,0,0,3.78-1.89,33.918,33.918,0,0,0,3.69-4.77l1.62-2.7a1.875,1.875,0,0,1,1.44-.72,1.732,1.732,0,0,1,1.35.855A4.638,4.638,0,0,1,264.24-15.39ZM232.65-8.55a5.6,5.6,0,0,0,2.88-.765,3.868,3.868,0,0,0,1.44-1.8,10.4,10.4,0,0,0,.63-2.61q.18-1.485.36-3.1.09-3.51.27-6.885t.27-6.795a2.555,2.555,0,0,0-2.16-.45,7.057,7.057,0,0,0-4.05,2.79,17.907,17.907,0,0,0-2.7,5.22,24.738,24.738,0,0,0-1.215,6.03,13.452,13.452,0,0,0,.495,5.22,4.54,4.54,0,0,0,1.485,2.475A3.845,3.845,0,0,0,232.65-8.55Zm72.18-5.67a7.294,7.294,0,0,1-1.215,4.5,22.278,22.278,0,0,1-3.96,5,26.236,26.236,0,0,1-5.58,4.095A12.548,12.548,0,0,1,288,1.08a11.279,11.279,0,0,1-5.4-1.125,7.835,7.835,0,0,1-3.15-3.015,11.071,11.071,0,0,1-1.35-4.32,23.581,23.581,0,0,1,0-5.04q.18-1.89.54-3.87t.72-3.735q.36-1.755.54-3.195a4.807,4.807,0,0,0-.09-2.16,2.033,2.033,0,0,0-.585-.99,2.105,2.105,0,0,0-1.395-.36,3.524,3.524,0,0,0-3.15,2.25q-.54.99-1.125,2.205a16.427,16.427,0,0,0-1.08,3.555,56.615,56.615,0,0,0-.855,6.255q-.36,3.915-.45,10.4A3.345,3.345,0,0,1,270.045.5,3.485,3.485,0,0,1,267.66,1.53,6.4,6.4,0,0,1,263.61.27,9.542,9.542,0,0,1,261-2.88a10.515,10.515,0,0,1-1.08-2.97,21.955,21.955,0,0,1-.855-5.175q-.135-2.745-.045-5.085.09-2.61.09-6.885t.18-9.135q.18-4.86.585-9.855a72.639,72.639,0,0,1,1.3-9.225,29.915,29.915,0,0,1,2.34-7.11,6.128,6.128,0,0,1,3.78-3.51,9.967,9.967,0,0,1,2.79.45,15.237,15.237,0,0,1,2.88,1.17,13.254,13.254,0,0,1,3.33,2.07,6.06,6.06,0,0,1,2.07,2.88,3.268,3.268,0,0,1-.54,3.42,15.793,15.793,0,0,0-1.845,3.51,38.094,38.094,0,0,0-1.53,4.905q-.675,2.745-1.215,5.94t-.9,6.435a17.09,17.09,0,0,1,5.265-4.1,11.937,11.937,0,0,1,5.085-1.305,11.255,11.255,0,0,1,5.625,1.4A6.782,6.782,0,0,1,291.6-31.14a11.772,11.772,0,0,1,.45,5.31,55.461,55.461,0,0,1-1.08,6.03q-.72,3.06-1.26,5.85a10.6,10.6,0,0,0,0,4.77,2.909,2.909,0,0,0,.4,1.215,1.133,1.133,0,0,0,1.035.5,7.073,7.073,0,0,0,3.78-1.755,18,18,0,0,0,4.32-4.9,18.725,18.725,0,0,1,1.26-1.665q.72-.855.99-.855a5.194,5.194,0,0,1,1.98.45A2.391,2.391,0,0,1,304.83-14.22Z" transform="translate(266 715.632)" fill="#1c1c1c"/>
  </g>
</svg>
